<svg width="24" height="24" viewBox="0 0 24 24" fill="none" xmlns="http://www.w3.org/2000/svg">
<path fill-rule="evenodd" clip-rule="evenodd" d="M12.4151 4.83993C13.3153 3.96816 14.5221 3.48521 15.7752 3.49527C17.0283 3.50533 18.2272 4.00758 19.1133 4.89368C19.9994 5.77978 20.5017 6.9787 20.5117 8.2318C20.5218 9.48489 20.0389 10.6917 19.1671 11.5919L19.1541 11.6049L16.8901 13.8699C16.4059 14.3541 15.8233 14.7284 15.1817 14.9676C14.5402 15.2069 13.8547 15.3053 13.1718 15.2564C12.4888 15.2075 11.8244 15.0123 11.2235 14.684C10.6226 14.3558 10.0993 13.9021 9.68909 13.3539C9.53648 13.1413 9.47335 12.8772 9.51323 12.6185C9.55312 12.3598 9.69286 12.1271 9.90244 11.9703C10.112 11.8134 10.3747 11.745 10.6342 11.7797C10.8936 11.8145 11.1291 11.9495 11.2901 12.1559C11.5283 12.4748 11.8324 12.7386 12.1816 12.9296C12.5308 13.1205 12.917 13.2341 13.314 13.2625C13.711 13.291 14.1095 13.2337 14.4824 13.0945C14.8553 12.9553 15.1938 12.7375 15.4751 12.4559L17.7341 10.1969C18.2282 9.67121 18.4982 8.97378 18.4869 8.25241C18.4756 7.53104 18.184 6.8424 17.6737 6.33238C17.1634 5.82236 16.4746 5.53103 15.7532 5.52012C15.0318 5.50921 14.3346 5.77957 13.8091 6.27393L12.5161 7.55993C12.327 7.74162 12.0741 7.84176 11.8118 7.83877C11.5496 7.83578 11.2991 7.7299 11.1141 7.54394C10.9292 7.35798 10.8248 7.10683 10.8233 6.84458C10.8218 6.58234 10.9233 6.33 11.1061 6.14193L12.4041 4.85093L12.4151 4.83993ZM8.81809 9.03193C9.785 8.67138 10.8427 8.63378 11.8328 8.92474C12.8228 9.21571 13.692 9.81958 14.3101 10.6459C14.4627 10.8586 14.5258 11.1226 14.4859 11.3813C14.4461 11.64 14.3063 11.8728 14.0967 12.0296C13.8872 12.1864 13.6245 12.2548 13.365 12.2201C13.1056 12.1854 12.8701 12.0503 12.7091 11.8439C12.4708 11.5252 12.1667 11.2615 11.8175 11.0707C11.4683 10.8798 11.0821 10.7663 10.6851 10.7379C10.2882 10.7094 9.88976 10.7667 9.5169 10.9057C9.14403 11.0448 8.80544 11.2625 8.52409 11.5439L6.26609 13.8029C5.76442 14.3269 5.48791 15.0266 5.49576 15.752C5.50362 16.4774 5.79523 17.1709 6.30813 17.6839C6.82103 18.1969 7.51444 18.4887 8.23984 18.4968C8.96524 18.5048 9.66494 18.2285 10.1891 17.7269L11.4741 16.4419C11.5663 16.3464 11.6767 16.2702 11.7987 16.2178C11.9207 16.1654 12.0519 16.1378 12.1847 16.1367C12.3175 16.1355 12.4491 16.1608 12.572 16.2111C12.6949 16.2614 12.8066 16.3356 12.9005 16.4295C12.9944 16.5234 13.0686 16.6351 13.1189 16.758C13.1692 16.8809 13.1945 17.0125 13.1933 17.1453C13.1922 17.2781 13.1646 17.4093 13.1122 17.5313C13.0598 17.6533 12.9836 17.7637 12.8881 17.8559L11.5971 19.1469L11.5851 19.1599C10.6849 20.0317 9.47806 20.5146 8.22496 20.5046C6.97187 20.4945 5.77295 19.9923 4.88685 19.1062C4.00075 18.2201 3.49849 17.0212 3.48844 15.7681C3.47838 14.515 3.96133 13.3081 4.83309 12.4079L4.84509 12.3949L7.11009 10.1299C7.59461 9.64632 8.17697 9.27194 8.81809 9.03193Z" fill="black"/>
</svg>
