<svg width="24" height="24" viewBox="0 0 24 24" fill="none" xmlns="http://www.w3.org/2000/svg">
<path d="M3.055 11C3.25026 9.26072 3.94785 7.61597 5.06256 6.26667C6.17727 4.91738 7.66083 3.92195 9.332 3.40199C7.97188 5.71584 7.18243 8.32038 7.029 11H3.055ZM10.992 1.04599C5.39 1.55399 1 6.26499 1 12C1 17.735 5.39 22.446 10.992 22.955L11 22.965L11.425 22.985C11.6165 22.9942 11.8082 22.9992 12 23C12.1918 23 12.3835 22.995 12.575 22.985L13 22.965L13.008 22.955C18.61 22.444 23 17.735 23 12C23 6.26499 18.61 1.55399 13.008 1.04599L13 1.03599L12.574 1.01499C12.1916 0.995005 11.8084 0.995005 11.426 1.01499L11 1.03499L10.992 1.04599ZM12.002 2.99999C13.749 5.32064 14.7796 8.10132 14.967 11H9.033C9.22071 8.10121 10.2516 5.32052 11.999 2.99999H12M7.028 13C7.188 15.76 8.008 18.345 9.331 20.598C7.66001 20.0779 6.17667 19.0824 5.06215 17.7331C3.94763 16.3838 3.25018 14.7391 3.055 13H7.028ZM11.998 21C10.2506 18.6795 9.2197 15.8988 9.032 13H14.966C14.7783 15.8988 13.7474 18.6795 12 21H11.998ZM14.668 20.598C16.0278 18.284 16.8169 15.6795 16.97 13H20.944C20.7488 14.7391 20.0514 16.3838 18.9369 17.7331C17.8223 19.0824 16.339 20.0779 14.668 20.598ZM16.97 11C16.81 8.23999 15.99 5.65499 14.667 3.40199C16.3384 3.92178 17.8221 4.91714 18.937 6.26645C20.0519 7.61576 20.7497 9.2606 20.945 11H16.97Z" fill="white"/>
</svg>
